<?xml version="1.0" standalone="no"?>
<!DOCTYPE svg PUBLIC "-//W3C//DTD SVG 20010904//EN"
 "http://www.w3.org/TR/2001/REC-SVG-20010904/DTD/svg10.dtd">
<svg version="1.0" xmlns="http://www.w3.org/2000/svg"
 width="1024.000000pt" height="1024.000000pt" viewBox="0 0 1024.000000 1024.000000"
 preserveAspectRatio="xMidYMid meet">

<g transform="translate(0.000000,1024.000000) scale(0.100000,-0.100000)"
fill="#000000" stroke="none">
<path d="M4866 9258 c-27 -21 -23 -60 13 -112 30 -42 83 -147 78 -152 -1 -2
-36 4 -77 12 -135 26 -282 36 -367 24 -129 -17 -176 -32 -189 -59 -20 -40 -3
-63 81 -104 43 -21 75 -40 73 -42 -3 -3 -42 -15 -87 -26 -190 -48 -364 -143
-486 -264 -66 -66 -37 -115 68 -115 l59 0 -96 -101 c-106 -112 -185 -218 -244
-330 -92 -173 -78 -233 48 -196 l52 15 -7 -26 c-29 -113 -37 -178 -42 -322
l-6 -165 -53 -62 c-29 -35 -68 -91 -87 -125 -82 -149 -156 -390 -176 -573
l-10 -100 -43 -34 c-71 -56 -271 -263 -305 -315 -51 -77 -38 -126 34 -126 l35
0 -55 -62 c-55 -63 -162 -208 -169 -229 -2 -7 -11 -7 -31 2 -21 9 -27 19 -27
43 -1 96 -73 333 -125 410 -22 33 -23 36 -6 36 10 0 30 9 45 21 l26 20 0 168
c0 212 1 211 -111 211 l-79 0 0 44 0 44 75 4 c108 5 109 7 113 180 2 78 1 156
-3 174 -11 62 -19 64 -206 64 l-169 0 0 329 0 328 38 25 c190 126 296 377 253
600 -42 217 -221 406 -436 463 -188 49 -388 -9 -536 -155 -180 -178 -228 -431
-126 -661 35 -79 110 -172 177 -221 l59 -43 0 -612 c1 -336 3 -618 6 -625 4
-10 -9 -18 -44 -27 -212 -54 -383 -233 -440 -461 -89 -354 -11 -711 207 -951
43 -48 51 -63 67 -134 49 -224 137 -470 217 -609 58 -100 124 -176 153 -176
29 0 55 34 56 75 1 16 4 41 8 55 6 23 12 18 79 -72 125 -167 305 -318 438
-367 61 -23 143 -28 162 -9 15 15 16 57 2 93 -9 23 -8 26 9 20 125 -39 341
-47 464 -15 42 10 108 32 147 49 38 16 70 28 70 26 0 -1 -30 -27 -67 -58 -110
-89 -246 -216 -323 -302 -139 -155 -329 -468 -316 -521 8 -30 45 -40 103 -27
39 9 44 9 40 -6 -3 -9 -19 -54 -35 -101 -45 -128 -66 -272 -59 -399 13 -228
72 -301 154 -191 l37 50 12 -48 c7 -26 20 -67 28 -91 9 -24 15 -45 14 -46 -2
-1 -41 -15 -87 -30 -260 -86 -534 -245 -664 -384 -130 -141 -129 -308 3 -385
39 -23 166 -33 222 -18 31 8 43 6 86 -15 41 -20 64 -24 131 -24 44 0 110 7
147 16 63 14 67 14 94 -5 66 -47 170 -47 332 1 64 19 69 19 100 3 95 -50 453
-10 920 102 l147 35 53 -42 c64 -51 135 -83 214 -99 42 -8 252 -10 719 -8
l660 3 70 24 c39 13 90 34 115 46 l46 23 159 -48 c193 -58 391 -100 471 -100
61 0 128 24 153 53 12 15 16 15 42 2 48 -25 141 -46 210 -47 71 0 140 23 177
60 20 20 22 20 103 4 145 -28 259 8 312 100 51 88 42 183 -30 302 -43 71 -188
223 -277 291 -35 28 -65 53 -65 58 -1 4 14 7 32 7 43 0 70 20 70 53 0 20 -21
49 -79 110 -122 127 -200 256 -258 431 -36 109 -36 111 24 81 60 -30 81 -31
105 -5 17 19 17 26 1 163 -21 182 -49 317 -91 442 -18 55 -32 101 -31 101 15
14 256 99 256 90 0 -6 -5 -31 -11 -55 -8 -35 -7 -48 6 -67 25 -39 61 -31 166
38 170 112 327 287 416 461 l25 50 26 -49 c23 -41 32 -50 59 -52 42 -4 56 19
90 144 22 85 26 121 27 254 1 163 -7 217 -60 394 -13 44 -24 81 -24 83 0 2 18
-6 40 -17 55 -28 97 -27 112 4 14 32 -5 93 -78 245 -106 223 -204 374 -342
529 l-64 72 33 0 c19 0 51 -5 71 -10 50 -14 78 0 78 40 0 80 -270 379 -530
585 l-124 100 41 8 c50 10 78 37 69 70 -8 34 -247 193 -399 266 -134 65 -308
127 -380 137 -26 4 -47 9 -47 12 0 2 25 31 55 64 175 189 191 437 41 646 -41
58 -129 123 -205 152 -61 22 -63 24 -92 88 -16 36 -28 66 -27 68 2 1 38 -3 80
-9 70 -10 79 -9 98 8 28 25 26 39 -21 124 -100 184 -223 344 -340 441 l-57 48
48 6 c91 12 104 56 36 122 -131 125 -342 224 -544 255 -46 7 -82 17 -82 24 0
6 16 43 35 83 27 56 32 78 25 96 -16 42 -50 45 -163 17 -96 -25 -173 -61 -238
-112 l-50 -40 -73 69 c-41 38 -105 88 -142 110 -132 76 -297 120 -338 90z
m315 -219 c31 -21 90 -74 131 -118 51 -55 82 -81 97 -81 13 0 47 22 79 51 51
45 197 128 207 117 2 -2 -2 -26 -10 -53 -18 -59 -19 -117 -3 -133 7 -7 35 -12
62 -12 81 -1 185 -18 271 -46 89 -29 205 -86 230 -113 15 -17 13 -19 -21 -24
-47 -8 -64 -23 -64 -57 0 -23 16 -40 89 -98 114 -92 213 -198 295 -319 36 -53
65 -97 63 -98 -1 -1 -35 2 -75 8 -64 9 -74 8 -92 -8 -29 -27 -25 -65 18 -147
22 -40 51 -106 66 -145 27 -70 29 -73 69 -83 165 -42 249 -116 283 -250 35
-139 -5 -269 -121 -387 l-66 -68 11 -45 c36 -155 59 -445 45 -585 l-7 -80 -25
30 c-61 73 -86 95 -108 95 -32 0 -40 -13 -85 -146 -73 -212 -173 -388 -294
-519 -44 -48 -55 -56 -56 -39 -1 48 -31 125 -53 133 -37 14 -54 1 -109 -82
-92 -141 -283 -367 -310 -367 -5 0 -8 36 -6 81 3 70 0 83 -16 95 -11 8 -27 14
-35 14 -9 0 -64 -48 -121 -107 -89 -91 -295 -263 -314 -263 -3 0 -6 22 -6 48
0 55 -12 72 -51 72 -22 0 -40 -16 -97 -87 -39 -49 -86 -103 -105 -121 l-34
-33 -81 76 c-87 82 -188 203 -270 326 -28 42 -59 79 -68 83 -39 15 -84 -50
-84 -121 0 -32 -10 -29 -56 20 -116 121 -202 246 -270 393 -43 92 -45 94 -78
94 -32 0 -38 -6 -78 -67 l-43 -66 -38 83 c-75 159 -117 384 -117 623 0 130 -6
149 -48 162 -18 5 -34 -5 -83 -52 l-61 -58 7 40 c16 88 78 283 114 361 48 102
89 164 154 231 l50 52 -4 68 c-12 205 11 354 78 510 34 80 36 88 22 112 -17
30 -62 39 -111 22 -17 -6 -33 -9 -36 -6 -2 2 21 42 53 89 70 104 191 235 293
317 90 72 98 83 84 115 -11 22 -25 28 -117 49 l-29 6 49 32 c111 69 252 116
424 141 56 8 109 20 117 27 31 26 16 65 -48 125 l-63 57 110 -6 c100 -5 176
-21 343 -69 56 -16 76 -4 80 48 2 33 -29 142 -63 217 -7 17 -4 17 36 -3 24
-13 69 -40 100 -61z m-2972 -329 c132 -25 261 -126 327 -255 34 -69 39 -85 42
-170 4 -75 0 -107 -17 -162 -29 -94 -102 -189 -190 -248 -38 -25 -72 -52 -75
-61 -3 -9 -6 -192 -6 -407 0 -349 2 -392 17 -409 14 -16 34 -18 190 -18 l173
0 0 -90 0 -90 -69 0 c-54 0 -74 -4 -95 -21 -26 -20 -26 -22 -26 -148 0 -167 3
-171 111 -171 l79 0 0 -90 0 -90 -149 0 -149 0 -13 38 c-19 59 -64 117 -116
150 -64 40 -104 51 -193 54 l-75 3 -5 643 -5 644 -26 21 c-15 12 -54 43 -86
68 -96 75 -155 179 -172 305 -13 86 0 160 42 248 91 191 287 294 486 256z
m4758 -1966 c113 -38 330 -139 421 -197 l54 -34 -47 -13 c-48 -13 -70 -38 -60
-69 3 -10 60 -60 128 -112 211 -162 356 -289 448 -392 87 -98 102 -120 77
-113 -7 3 -41 7 -76 10 -53 5 -65 3 -82 -14 -37 -37 -26 -62 76 -172 162 -173
328 -411 399 -573 23 -50 24 -57 8 -50 -78 33 -104 39 -121 29 -25 -16 -20
-77 12 -153 86 -199 123 -444 97 -636 l-6 -50 -19 30 c-26 40 -45 55 -71 55
-30 0 -47 -23 -78 -105 -61 -159 -176 -321 -299 -424 -38 -31 -74 -58 -80 -60
-8 -3 -9 13 -5 51 8 61 -9 98 -45 98 -12 0 -55 -20 -97 -43 -211 -121 -481
-186 -770 -187 l-125 0 46 29 c49 31 101 93 132 157 l20 40 88 -4 c98 -5 118
3 118 47 0 61 -86 202 -206 336 -40 45 -70 85 -67 89 4 3 21 6 40 6 36 0 73
29 73 57 0 31 -77 89 -196 149 -65 33 -139 68 -164 78 l-44 18 24 19 c45 35
283 148 375 178 50 17 148 42 219 56 71 14 135 30 143 36 22 19 16 67 -10 84
-20 13 -34 13 -120 0 -54 -8 -124 -21 -156 -30 -32 -8 -65 -15 -73 -15 -10 0
-26 43 -53 139 -42 155 -63 189 -110 177 -50 -13 -51 -39 -5 -205 23 -84 40
-154 38 -155 -1 -1 -43 -20 -92 -41 -94 -41 -243 -130 -286 -170 l-25 -23 -87
29 c-247 83 -540 76 -767 -19 -178 -75 -342 -228 -429 -399 -17 -31 -30 -44
-59 -53 -146 -47 -311 -185 -377 -317 -66 -133 -78 -193 -85 -433 l-6 -215
-82 -5 c-70 -5 -88 -10 -125 -35 -25 -18 -52 -50 -67 -80 l-26 -50 1 -600 c1
-643 3 -676 54 -775 l20 -39 -38 -11 c-102 -28 -459 -103 -575 -121 -151 -22
-297 -25 -315 -7 -32 32 7 99 94 159 51 35 62 61 40 94 -26 40 -74 34 -137
-17 -74 -61 -107 -106 -121 -164 l-12 -51 -82 -22 c-90 -23 -193 -28 -212 -9
-29 29 -1 118 55 169 15 15 47 38 71 53 36 23 42 31 42 61 0 58 -61 73 -128
31 -84 -53 -157 -157 -168 -240 l-6 -44 -62 -13 c-124 -27 -216 -9 -216 42 0
36 38 96 82 128 23 17 46 31 52 31 20 0 46 34 46 61 0 37 -39 64 -77 54 -40
-9 -118 -61 -150 -99 -36 -43 -73 -125 -73 -163 l0 -33 -69 0 c-87 0 -121 22
-121 79 0 130 277 329 652 470 118 44 140 50 162 40 20 -10 30 -9 51 5 33 22
32 39 -9 127 -39 85 -63 169 -76 270 -15 125 -63 142 -135 47 l-40 -52 -3 90
c-5 156 33 312 118 478 27 55 50 107 50 117 0 10 -11 26 -24 34 -22 15 -28 14
-77 -4 -29 -11 -54 -19 -56 -18 -5 5 87 148 146 227 76 102 229 254 389 384
72 60 133 114 133 120 1 6 3 36 4 66 7 134 18 237 41 400 30 219 31 246 3 260
-33 18 -64 4 -105 -50 -21 -27 -40 -50 -43 -50 -7 0 9 221 25 325 19 127 37
205 76 328 25 78 29 102 20 121 -23 51 -80 37 -111 -26 -28 -59 -84 -286 -107
-433 -22 -148 -26 -457 -6 -492 20 -36 58 -40 91 -9 32 30 41 33 35 9 -3 -10
-10 -74 -17 -143 l-12 -125 -74 -36 c-227 -113 -423 -125 -664 -42 -83 29
-112 35 -125 27 -23 -15 -27 -64 -8 -108 8 -20 12 -36 9 -36 -3 0 -32 14 -65
32 -112 60 -288 245 -412 436 -41 62 -52 72 -77 72 -33 0 -50 -23 -69 -92 -7
-27 -16 -48 -20 -48 -9 0 -102 199 -133 285 -14 39 -34 106 -47 150 -12 44
-24 88 -26 97 -4 14 12 9 73 -22 147 -74 315 -117 348 -90 20 17 19 63 -2 82
-10 9 -65 30 -123 48 -324 99 -495 267 -586 575 -23 79 -27 109 -28 240 -1
170 12 240 70 363 41 86 131 186 201 224 106 58 312 93 403 68 88 -24 146
-114 123 -193 l-9 -32 -119 -1 c-133 -1 -202 -16 -303 -65 -68 -33 -89 -61
-78 -104 11 -44 48 -49 115 -16 154 78 359 87 436 20 42 -37 52 -77 30 -119
-22 -43 -70 -70 -125 -70 -75 0 -181 -28 -268 -70 -94 -45 -116 -72 -89 -114
24 -37 52 -41 100 -15 126 66 285 94 347 62 52 -27 83 -79 76 -128 -10 -76
-105 -140 -292 -195 -85 -25 -109 -53 -83 -98 19 -36 51 -38 146 -12 162 44
293 131 336 222 19 40 22 124 7 179 -5 19 -26 54 -46 77 l-35 42 19 28 c60 83
45 234 -30 297 -26 22 -28 29 -21 52 9 27 11 27 105 31 l96 4 46 -84 c127
-233 159 -445 106 -708 -27 -136 -23 -215 11 -242 25 -21 30 -22 53 -5 14 10
25 54 47 193 16 98 29 190 29 202 0 23 1 23 43 -10 62 -48 136 -124 196 -200
41 -53 59 -68 79 -68 32 0 62 26 62 55 0 31 -78 136 -162 217 l-69 68 44 67
c59 91 151 204 231 283 69 67 80 95 50 124 -12 13 -27 15 -72 9 l-56 -6 44 50
c25 28 83 84 130 124 46 41 119 107 162 148 62 59 78 70 78 54 0 -57 23 -239
41 -322 39 -177 131 -405 197 -482 44 -53 83 -35 118 53 10 27 22 48 25 48 4
0 26 -32 49 -71 64 -108 183 -261 284 -365 77 -79 96 -94 122 -94 40 0 52 15
60 73 l7 46 59 -75 c138 -175 315 -332 361 -320 13 3 56 39 96 81 41 42 74 74
75 73 28 -47 40 -58 59 -58 39 0 306 196 376 275 17 19 33 35 36 35 3 0 5 -22
5 -50 0 -84 49 -112 120 -69 82 51 270 243 341 351 29 43 28 43 43 -24 4 -15
17 -35 30 -44 22 -14 27 -14 55 1 115 59 315 337 416 577 26 62 49 114 50 116
2 2 23 -29 46 -68 46 -73 71 -90 107 -71 58 31 91 319 69 614 -4 59 -5 107 -3
107 3 0 54 -16 113 -36z m-889 -2114 c164 -21 355 -81 558 -176 95 -45 98 -47
73 -58 -90 -38 -83 -65 54 -200 92 -91 187 -207 187 -229 0 -2 -19 -2 -42 0
-63 7 -94 -9 -108 -54 -31 -98 -114 -181 -207 -209 -61 -18 -184 -18 -229 1
-38 16 -37 31 5 69 39 36 16 106 -35 106 -33 0 -114 -94 -164 -192 -71 -138
-131 -184 -202 -155 -49 20 -70 69 -69 160 1 120 55 255 141 353 43 50 37 103
-15 118 -30 8 -59 -13 -105 -74 -87 -116 -149 -281 -150 -397 0 -52 -23 -68
-86 -60 -130 14 -196 180 -135 338 19 50 75 137 143 222 21 26 22 30 7 55 -10
19 -24 28 -46 30 -41 4 -87 -36 -149 -130 -66 -99 -95 -188 -97 -301 l-2 -92
-45 -3 c-53 -3 -101 23 -137 77 -32 47 -43 94 -43 181 1 142 64 274 195 405
176 176 419 250 703 215z m-1020 -622 l-2 -83 -3 73 c-3 64 -6 73 -21 68 -13
-5 -13 -3 2 9 11 8 21 15 23 15 2 0 2 -37 1 -82z m-68 34 c-31 -20 -130 -118
-153 -152 -17 -24 -17 -24 -6 -1 22 47 154 173 178 170 3 0 -5 -7 -19 -17z
m35 -206 c-25 -26 -41 -38 -36 -27 6 10 24 30 41 44 16 14 30 32 31 39 0 9 2
9 5 1 3 -6 -16 -32 -41 -57z m-235 -52 c-10 -27 -19 -43 -20 -37 0 16 31 95
36 90 2 -2 -5 -25 -16 -53z m173 -39 c-9 -19 -18 -33 -21 -31 -4 5 26 66 33
66 3 0 -3 -16 -12 -35z m191 -19 c39 -51 136 -96 205 -95 31 0 65 4 76 8 16 7
27 0 53 -30 51 -59 112 -90 186 -96 36 -3 78 -1 97 6 30 10 34 9 65 -27 33
-36 33 -39 34 -134 l0 -98 -426 0 -426 0 4 163 c4 135 8 171 26 216 21 54 62
121 73 121 4 0 18 -15 33 -34z m-387 -18 c-3 -8 -6 -5 -6 6 -1 11 2 17 5 13 3
-3 4 -12 1 -19z m159 -54 c-8 -21 -15 -34 -15 -28 -1 15 20 76 25 71 2 -2 -2
-21 -10 -43z m-169 14 c-3 -8 -6 -5 -6 6 -1 11 2 17 5 13 3 -3 4 -12 1 -19z
m-10 -75 c-3 -10 -5 -2 -5 17 0 19 2 27 5 18 2 -10 2 -26 0 -35z m160 -5 c-3
-8 -6 -5 -6 6 -1 11 2 17 5 13 3 -3 4 -12 1 -19z m1489 -22 c98 -41 188 -57
360 -63 161 -6 294 4 422 31 l64 13 19 -44 c34 -80 68 -206 89 -331 29 -169
28 -173 -39 -122 -56 42 -90 50 -111 25 -29 -35 17 -267 85 -428 41 -96 131
-245 183 -301 17 -20 32 -38 32 -41 0 -8 -79 4 -134 21 -57 18 -91 12 -106
-17 -18 -33 9 -61 141 -143 165 -101 258 -176 340 -271 74 -86 139 -200 139
-246 0 -15 -11 -41 -25 -58 -21 -24 -36 -31 -79 -36 -60 -8 -165 10 -170 28
-2 7 -9 30 -15 52 -6 23 -25 62 -42 88 -35 53 -141 137 -173 137 -35 0 -66
-28 -66 -60 0 -24 9 -35 53 -64 92 -62 148 -178 102 -216 -36 -30 -183 -19
-272 20 -35 15 -43 24 -43 45 0 59 -61 143 -143 196 -73 47 -118 52 -143 14
-22 -33 -10 -61 37 -91 101 -64 154 -138 129 -183 -15 -29 -48 -34 -132 -21
-110 17 -414 97 -436 115 -2 2 13 20 32 41 47 51 82 117 101 189 13 50 15 151
15 645 0 381 -4 598 -11 623 -13 47 -72 115 -116 134 -18 7 -64 13 -102 13
l-70 0 -3 171 c-3 147 -1 169 12 165 8 -2 43 -16 76 -30z m-1496 -146 l0 -150
-87 2 -88 2 83 3 82 4 0 144 c0 80 2 145 5 145 3 0 5 -67 5 -150z m-163 -72
c-2 -35 -3 -7 -3 62 0 69 1 97 3 63 2 -35 2 -91 0 -125z m1441 30 l-2 -93 -5
85 c-3 47 -5 88 -3 93 9 21 12 -2 10 -85z m-101 26 c-3 -3 -12 -4 -19 -1 -8 3
-5 6 6 6 11 1 17 -2 13 -5z m-54 -11 c-18 -4 -23 -12 -26 -51 l-3 -47 -2 53
c-2 51 -1 52 26 51 22 -1 23 -2 5 -6z m132 -117 c17 -1 -14 -4 -67 -4 -54 -1
-98 1 -98 6 0 6 94 6 165 -2z m-377 -143 c-229 -2 -607 -2 -840 0 -233 1 -45
2 417 2 462 0 652 -1 423 -2z m-1295 -23 c-36 -21 -41 -37 -46 -125 -3 -59 -3
-59 -5 13 -2 69 0 75 27 103 16 16 35 29 43 29 7 0 -2 -9 -19 -20z m1762 -5
c14 -13 25 -30 25 -37 -1 -7 -7 -2 -14 11 -7 13 -24 30 -37 37 -13 7 -18 13
-11 14 7 0 24 -11 37 -25z m-1808 -222 c-3 -10 -5 -4 -5 12 0 17 2 24 5 18 2
-7 2 -21 0 -30z m0 -45 c-3 -8 -6 -5 -6 6 -1 11 2 17 5 13 3 -3 4 -12 1 -19z
m941 5 c-16 -2 -40 -2 -55 0 -16 2 -3 4 27 4 30 0 43 -2 28 -4z m59 -9 c-3 -3
-12 -4 -19 -1 -8 3 -5 6 6 6 11 1 17 -2 13 -5z m-188 -8 c-2 -2 -15 -9 -29
-15 -24 -11 -24 -11 -6 3 16 13 49 24 35 12z m262 -33 c13 -16 12 -17 -3 -4
-10 7 -18 15 -18 17 0 8 8 3 21 -13z m-1074 -25 c-3 -7 -5 -2 -5 12 0 14 2 19
5 13 2 -7 2 -19 0 -25z m753 29 c0 -2 -15 -16 -32 -33 l-33 -29 29 33 c28 30
36 37 36 29z m381 -64 c13 -16 12 -17 -3 -4 -10 7 -18 15 -18 17 0 8 8 3 21
-13z m-1134 -80 c-2 -16 -4 -3 -4 27 0 30 2 43 4 28 2 -16 2 -40 0 -55z m654
-4 c-5 -13 -10 -19 -10 -12 -1 15 10 45 15 40 3 -2 0 -15 -5 -28z m526 -56
c-3 -10 -5 -4 -5 12 0 17 2 24 5 18 2 -7 2 -21 0 -30z m-1180 -35 c-2 -13 -4
-3 -4 22 0 25 2 35 4 23 2 -13 2 -33 0 -45z m640 -10 c-2 -13 -4 -3 -4 22 0
25 2 35 4 23 2 -13 2 -33 0 -45z m540 -35 c-3 -10 -5 -2 -5 17 0 19 2 27 5 18
2 -10 2 -26 0 -35z m-503 -82 c4 -6 4 -11 1 -11 -9 0 -35 66 -34 87 0 10 6 0
13 -23 7 -23 16 -46 20 -53z m-677 27 c-2 -13 -4 -5 -4 17 -1 22 1 32 4 23 2
-10 2 -28 0 -40z m1163 -7 c0 -5 -9 -19 -20 -32 l-20 -24 17 32 c19 34 23 39
23 24z m-1163 -83 c-2 -13 -4 -3 -4 22 0 25 2 35 4 23 2 -13 2 -33 0 -45z
m723 7 c19 -19 32 -35 29 -35 -3 0 -20 16 -39 35 -19 19 -32 35 -29 35 3 0 20
-16 39 -35z m400 12 c0 -2 -10 -12 -22 -23 l-23 -19 19 23 c18 21 26 27 26 19z
m-65 -57 c-10 -11 -21 -18 -23 -15 -3 3 3 12 14 20 27 20 30 18 9 -5z m-1058
-37 c-3 -10 -5 -2 -5 17 0 19 2 27 5 18 2 -10 2 -26 0 -35z m781 16 c-3 -8 -7
-3 -11 10 -4 17 -3 21 5 13 5 -5 8 -16 6 -23z m269 -46 c-3 -10 -5 -4 -5 12 0
17 2 24 5 18 2 -7 2 -21 0 -30z m-280 -10 c-3 -10 -5 -4 -5 12 0 17 2 24 5 18
2 -7 2 -21 0 -30z m-770 -25 c-3 -7 -5 -2 -5 12 0 14 2 19 5 13 2 -7 2 -19 0
-25z m1060 -25 c-3 -10 -5 -4 -5 12 0 17 2 24 5 18 2 -7 2 -21 0 -30z m-300
-5 c-3 -7 -5 -2 -5 12 0 14 2 19 5 13 2 -7 2 -19 0 -25z m-760 -35 c-3 -10 -5
-2 -5 17 0 19 2 27 5 18 2 -10 2 -26 0 -35z m1070 -20 c-3 -10 -5 -4 -5 12 0
17 2 24 5 18 2 -7 2 -21 0 -30z m-320 -5 c-3 -7 -5 -2 -5 12 0 14 2 19 5 13 2
-7 2 -19 0 -25z m330 -50 c-3 -7 -5 -2 -5 12 0 14 2 19 5 13 2 -7 2 -19 0 -25z
m-340 -10 c-3 -7 -5 -2 -5 12 0 14 2 19 5 13 2 -7 2 -19 0 -25z m1100 -75 c-2
-21 -4 -4 -4 37 0 41 2 58 4 38 2 -21 2 -55 0 -75z m-750 25 c-3 -7 -5 -2 -5
12 0 14 2 19 5 13 2 -7 2 -19 0 -25z m-360 -10 c-3 -7 -5 -2 -5 12 0 14 2 19
5 13 2 -7 2 -19 0 -25z m6 -128 c5 -8 1 -6 -7 4 -10 13 -15 37 -15 65 l2 46 6
-50 c4 -27 10 -57 14 -65z m364 48 c-2 -13 -4 -3 -4 22 0 25 2 35 4 23 2 -13
2 -33 0 -45z m-1100 -25 c-2 -16 -4 -3 -4 27 0 30 2 43 4 28 2 -16 2 -40 0
-55z m1830 -20 c-3 -10 -5 -4 -5 12 0 17 2 24 5 18 2 -7 2 -21 0 -30z m-757
-8 c-13 -14 -31 -25 -39 -24 -11 0 -10 3 4 9 12 4 27 15 34 24 7 9 16 16 19
16 3 0 -5 -11 -18 -25z m-1063 -37 c-3 -7 -5 -2 -5 12 0 14 2 19 5 13 2 -7 2
-19 0 -25z m779 14 c-10 -2 -22 0 -28 6 -6 6 0 7 19 4 21 -5 23 -7 9 -10z
m1031 -14 c-3 -8 -6 -5 -6 6 -1 11 2 17 5 13 3 -3 4 -12 1 -19z m-1764 -101
c14 -26 22 -45 16 -42 -10 7 -49 79 -49 91 0 10 3 6 33 -49z m1728 10 c-10 -9
-11 -8 -5 6 3 10 9 15 12 12 3 -3 0 -11 -7 -18z m-20 -34 c-20 -37 -132 -133
-155 -133 -6 0 10 13 35 29 25 15 63 49 85 74 42 50 50 56 35 30z m-1561 -122
c30 -17 51 -31 45 -31 -20 0 -111 59 -140 91 l-30 34 35 -32 c19 -18 60 -46
90 -62z m1365 -26 c-16 -8 -37 -14 -45 -14 -8 0 1 7 20 14 46 18 64 17 25 0z
m-1232 -22 c-7 -2 -21 -2 -30 0 -10 3 -4 5 12 5 17 0 24 -2 18 -5z m344 1 c-3
-3 -12 -4 -19 -1 -8 3 -5 6 6 6 11 1 17 -2 13 -5z m546 -1 c-7 -2 -21 -2 -30
0 -10 3 -4 5 12 5 17 0 24 -2 18 -5z m260 0 c-13 -2 -35 -2 -50 0 -16 2 -5 4
22 4 28 0 40 -2 28 -4z"/>
<path d="M4419 8137 c-169 -97 -275 -221 -339 -395 -64 -176 -59 -358 14 -499
15 -30 14 -31 -34 -88 -92 -108 -140 -234 -147 -385 -7 -130 16 -231 81 -365
147 -304 432 -492 826 -545 244 -33 568 42 778 181 278 183 421 443 410 748
l-3 107 47 -29 c45 -28 49 -29 73 -13 34 23 38 48 33 210 -8 208 -65 442 -185
756 -30 80 -68 183 -84 229 -43 126 -57 128 -172 35 -78 -62 -281 -174 -318
-174 -14 0 -14 8 7 68 13 37 23 76 24 88 0 21 -28 54 -47 54 -6 0 -61 -34
-124 -76 -62 -42 -149 -94 -194 -116 -101 -51 -205 -91 -205 -78 0 10 36 108
64 173 16 37 16 38 -8 62 -29 29 -35 28 -131 -33 -73 -47 -221 -122 -240 -122
-7 0 -9 34 -7 104 4 99 3 104 -19 120 -31 21 -35 21 -100 -17z m-4 -219 c-8
-93 5 -122 56 -126 38 -3 132 24 212 62 26 13 47 21 47 18 0 -3 -7 -29 -17
-58 -15 -49 -15 -54 1 -78 13 -20 25 -26 55 -26 90 0 272 63 414 144 42 24 77
41 77 37 0 -3 -4 -22 -10 -41 -13 -45 -5 -69 27 -81 59 -22 302 70 440 166 36
25 66 45 67 43 1 -2 34 -84 74 -183 81 -205 122 -339 152 -492 20 -103 38
-283 28 -283 -2 0 -29 18 -58 40 -56 42 -98 51 -120 25 -13 -16 -11 -41 15
-155 24 -107 17 -300 -14 -390 -67 -195 -235 -369 -449 -467 -171 -78 -399
-115 -575 -94 -363 44 -637 233 -758 521 -88 208 -41 473 107 617 62 61 67 84
30 147 -39 66 -56 141 -56 242 0 122 32 225 101 328 45 67 131 156 152 156 4
0 5 -33 2 -72z"/>
<path d="M4347 7532 c-10 -10 -17 -35 -17 -55 0 -61 19 -67 207 -67 150 0 165
2 183 20 11 11 20 33 20 50 0 17 -9 39 -20 50 -18 18 -33 20 -188 20 -151 0
-171 -2 -185 -18z"/>
<path d="M5156 7528 c-22 -31 -20 -74 4 -98 18 -18 33 -20 180 -20 175 0 202
6 221 52 10 25 9 33 -8 56 l-20 27 -181 3 c-177 2 -181 2 -196 -20z"/>
<path d="M5290 7272 c-47 -23 -72 -74 -67 -132 4 -35 13 -51 41 -77 59 -55
132 -40 162 33 31 74 8 155 -51 180 -43 18 -43 18 -85 -4z"/>
<path d="M4493 7258 c-48 -53 -56 -113 -24 -162 25 -38 57 -55 101 -56 111 -1
151 161 56 224 -38 24 -108 21 -133 -6z"/>
<path d="M5011 6951 c-46 -49 -69 -61 -121 -61 -46 0 -90 19 -138 62 -25 21
-40 27 -55 22 -36 -11 -47 -25 -47 -59 0 -100 196 -185 325 -141 118 40 188
143 135 196 -30 30 -58 24 -99 -19z"/>
<path d="M5440 6679 c-57 -55 -116 -86 -225 -115 -58 -16 -104 -19 -270 -18
-174 0 -210 3 -280 22 -91 25 -194 71 -242 108 -17 13 -43 24 -57 24 -26 0
-56 -32 -56 -61 0 -57 165 -153 330 -191 82 -19 125 -22 310 -23 193 0 224 2
300 23 118 31 220 84 275 143 50 54 57 87 25 119 -31 31 -53 24 -110 -31z"/>
<path d="M2080 8471 c-101 -31 -160 -111 -160 -215 0 -88 77 -193 157 -215 51
-15 73 -14 124 4 52 19 94 56 120 107 24 48 26 155 3 201 -47 93 -154 145
-244 118z m114 -162 c34 -40 33 -74 -3 -110 -57 -56 -141 -23 -141 56 0 80 93
115 144 54z"/>
</g>
</svg>
